<?xml version="1.0" encoding="UTF-8"?>
<svg width="24px" height="24px" viewBox="0 0 24 24" version="1.1" xmlns="http://www.w3.org/2000/svg" xmlns:xlink="http://www.w3.org/1999/xlink">
    <!-- Generator: Sketch 61.2 (89653) - https://sketch.com -->
    <title>Group 3</title>
    <desc>Created with Sketch.</desc>
    <g id="Page-1" stroke="none" stroke-width="1" fill="none" fill-rule="evenodd">
        <g id="Group-3">
            <g id="Group" fill="#FFFFFF">
                <circle id="Oval" cx="12" cy="12" r="12"></circle>
            </g>
            <g id="cow-(3)" transform="translate(4.000000, 4.000000)" fill="#273469" fill-rule="nonzero">
                <path d="M10.008375,11.0458437 L5.99171875,11.0458437 L5.99171875,11.0458437 C4.6258125,11.0458437 3.51459375,12.1570937 3.51459375,13.5229688 C3.51459375,14.8888125 4.6258125,16.0000312 5.99171875,16.0000312 L10.008375,16.0000312 C11.3742188,16.0000312 12.4854375,14.8888125 12.4854375,13.5229687 C12.4854375,12.1570937 11.3742188,11.0458437 10.008375,11.0458437 Z" id="Path"></path>
                <path d="M15.5312812,3.0125625 L12.73,3.0125625 L12.73,0.46875 C12.73,0.20990625 12.520125,0 12.26125,0 C12.002375,0 11.7925,0.20990625 11.7925,0.46875 L11.7925,1.7523125 C10.8769063,0.68065625 9.51634375,0 7.99953125,0 C6.483,0 5.122625,0.6806875 4.20721875,1.752375 L4.20721875,0.46875 C4.20721875,0.20990625 3.99734375,0 3.73846875,0 C3.47959375,0 3.26971875,0.20990625 3.26971875,0.46875 L3.26971875,3.0125625 L0.46878125,3.0125625 C0.20990625,3.0125625 3.125e-05,3.22240625 3.125e-05,3.4813125 C3.125e-05,5.315625 1.4261875,6.823 3.227875,6.9533125 C3.42484375,8.06159375 3.75046875,9.37290625 4.17659375,10.6320625 C4.70278125,10.3005313 5.3251875,10.1083437 5.99171875,10.1083437 L10.008375,10.1083437 C10.6746875,10.1083437 11.2969375,10.3004062 11.823,10.6317812 C12.2493438,9.37284375 12.5750625,8.06159375 12.7720937,6.9533125 C14.5738438,6.82303125 16,5.315625 16,3.4813125 C16,3.22240625 15.7901563,3.0125625 15.5312812,3.0125625 Z" id="Path"></path>
            </g>
        </g>
    </g>
</svg>