<?xml version="1.0" encoding="UTF-8"?>
<svg width="24px" height="24px" viewBox="0 0 24 24" version="1.1" xmlns="http://www.w3.org/2000/svg" xmlns:xlink="http://www.w3.org/1999/xlink">
    <!-- Generator: Sketch 61.2 (89653) - https://sketch.com -->
    <title>Group 4</title>
    <desc>Created with Sketch.</desc>
    <g id="Page-1" stroke="none" stroke-width="1" fill="none" fill-rule="evenodd">
        <g id="Group-4">
            <g id="Group" fill="#FFFFFF">
                <circle id="Oval" cx="12" cy="12" r="12"></circle>
            </g>
            <g id="carrot-(2)" transform="translate(4.000000, 4.000000)" fill="#273469" fill-rule="nonzero">
                <path d="M10.1830937,5.5483125 C9.72175,5.18590625 8.0945625,4.12459375 6.54709375,5.67178125 C6.4926875,5.7261875 6.4348125,5.78778125 6.3785625,5.84590625 L6.52921875,5.88696875 C6.56040625,5.8915 7.83640625,6.125375 8.45534375,6.74403125 C8.55934375,6.84828125 8.55934375,7.01709375 8.45534375,7.12109375 C8.4030625,7.173375 8.3348125,7.19921875 8.26653125,7.19921875 C8.19853125,7.19921875 8.13025,7.17334375 8.078,7.12109375 C7.66171875,6.70484375 6.73453125,6.46428125 6.41240625,6.4066875 L5.96759375,6.28640625 C5.6531875,6.63546875 5.31640625,7.03575 4.9630625,7.48321875 L5.12253125,7.517875 C5.4891875,7.60828125 6.3771875,7.86615625 6.85534375,8.344 C6.95934375,8.44828125 6.95934375,8.6170625 6.85534375,8.7210625 C6.8030625,8.77334375 6.7348125,8.7991875 6.66653125,8.7991875 C6.59853125,8.7991875 6.53025,8.7733125 6.478,8.7210625 C6.1651875,8.40825 5.51053125,8.16265625 5.002,8.03734375 L4.60171875,7.95040625 C4.316375,8.3269375 4.02225,8.7328125 3.722,9.166125 L3.904125,9.2213125 C4.24546875,9.3274375 4.8729375,9.56184375 5.2553125,9.94396875 C5.3593125,10.04825 5.3593125,10.2170312 5.2553125,10.3210312 C5.2030625,10.3733125 5.13478125,10.3991562 5.0665,10.3991562 C4.9985,10.3991562 4.93021875,10.3732812 4.87796875,10.3210312 C4.66115625,10.1042187 4.2385,9.8836875 3.7473125,9.73115625 L3.40678125,9.6274375 C3.09584375,10.090375 2.780375,10.582625 2.46253125,11.1013125 L2.672125,11.1927812 C2.97371875,11.3186562 3.42359375,11.5791875 3.6553125,11.8106562 C3.7593125,11.9149375 3.7593125,12.0837187 3.6553125,12.1877187 C3.6030625,12.24 3.53478125,12.2658437 3.4665,12.2658437 C3.3985,12.2658437 3.33021875,12.2399687 3.27796875,12.1877187 C3.1094375,12.0191875 2.720375,11.7906562 2.4625,11.6831875 L2.18278125,11.5610625 C1.456375,12.7794687 0.72490625,14.1367812 0.0254375,15.6189375 C-0.0225625,15.7205312 -0.0015,15.8415937 0.07796875,15.9210625 C0.12915625,15.97225 0.1974375,15.9991875 0.26678125,15.9991875 C0.3051875,15.9991875 0.344125,15.9909062 0.380375,15.9738437 C5.16278125,13.7170312 8.65478125,11.1253125 10.3275625,9.45225 C11.87475,7.9050625 10.8134375,6.278125 10.4510312,5.81625 C10.3729687,5.7165625 10.2828125,5.6264375 10.1830937,5.5483125 Z" id="Path"></path>
                <path d="M15.5660312,2.79596875 C15.531375,2.7613125 15.4945625,2.72878125 15.4548438,2.6973125 C15.6820312,2.1525 15.5647188,1.506125 15.1364375,1.07784375 C14.6870937,0.6285 14.0161562,0.526125 13.4625625,0.78825 C13.3940312,0.65678125 13.3068437,0.53678125 13.203375,0.4333125 C12.6255,-0.14428125 11.6855,-0.14428125 11.1079062,0.4333125 C10.699625,0.84159375 10.5783125,1.446125 10.7628438,1.9711875 C10.4881875,2.02984375 10.235125,2.1653125 10.0340312,2.366375 C9.45615625,2.94425 9.4564375,3.88425 10.0340312,4.46184375 C10.2372188,4.66503125 10.4921563,4.7994375 10.7646875,4.85759375 L11.7332188,3.8890625 L11.7332188,3.19946875 C11.7332188,3.052 11.8526875,2.9328125 11.999875,2.9328125 C12.1473438,2.9328125 12.2665313,3.052 12.2665313,3.19946875 L12.2665313,3.35575 L12.799875,2.82240625 L12.799875,2.13275 C12.799875,1.98528125 12.9193438,1.86609375 13.0665313,1.86609375 C13.214,1.86609375 13.3331875,1.98528125 13.3331875,2.13275 L13.3331875,2.66609375 L13.5998438,2.66609375 C13.7473125,2.66609375 13.8665,2.78528125 13.8665,2.93275 C13.8665,3.0799375 13.7473125,3.19940625 13.5998438,3.19940625 L13.1771875,3.19940625 L12.6438438,3.73275 L13.0665,3.73275 C13.2139688,3.73275 13.3331563,3.8519375 13.3331563,3.99940625 C13.3331563,4.14659375 13.2139688,4.2660625 13.0665,4.2660625 L12.1105,4.2660625 L11.144375,5.2319375 C11.2025,5.50528125 11.3337188,5.76153125 11.5374375,5.96528125 C11.82625,6.25434375 12.2057188,6.398625 12.5851875,6.398625 C12.9646563,6.398625 13.344125,6.25409375 13.6329063,5.96528125 C13.8339688,5.76421875 13.9694375,5.51115625 14.0280938,5.23646875 C14.5534375,5.42075 15.1576875,5.29965625 15.5659688,4.89140625 C16.143625,4.3138125 16.143875,3.3738125 15.5660312,2.79596875 Z" id="Path"></path>
            </g>
        </g>
    </g>
</svg>