<?xml version="1.0" encoding="UTF-8"?>
<svg width="24px" height="24px" viewBox="0 0 24 24" version="1.1" xmlns="http://www.w3.org/2000/svg" xmlns:xlink="http://www.w3.org/1999/xlink">
    <!-- Generator: Sketch 61.2 (89653) - https://sketch.com -->
    <title>Group 2</title>
    <desc>Created with Sketch.</desc>
    <g id="Page-1" stroke="none" stroke-width="1" fill="none" fill-rule="evenodd">
        <g id="Group-2">
            <g id="Group-3" fill="#FFFFFF">
                <g id="Group">
                    <circle id="Oval" cx="12" cy="12" r="12"></circle>
                </g>
            </g>
            <g id="hourglass" transform="translate(6.000000, 4.000000)" fill="#273469" fill-rule="nonzero">
                <path d="M8.53521875,7.52821875 C8.68415625,7.398625 8.8545625,7.2554375 9.03490625,7.1038125 C10.3653437,5.98540625 12.1875,4.45371875 12.1875,2.84375 L12.1875,1.875 C12.1875,0.841125 11.346375,0 10.3125,0 L1.875,0 C0.841125,0 0,0.841125 0,1.875 L0,2.84375 C0,4.45371875 1.82215625,5.98540625 3.15259375,7.1038125 C3.3329375,7.2554375 3.5033125,7.398625 3.65225,7.52821875 C3.7938125,7.651375 3.875,7.8233125 3.875,8 C3.875,8.17665625 3.7938125,8.348625 3.65228125,8.47178125 C3.50334375,8.601375 3.3329375,8.7445625 3.15259375,8.8961875 C1.82215625,10.0145937 0,11.5462812 0,13.15625 L0,14.125 C0,15.158875 0.841125,16 1.875,16 L10.3125,16 C11.346375,16 12.1875,15.158875 12.1875,14.125 C12.1875,13.7798125 11.9076875,13.5 11.5625,13.5 C11.2173125,13.5 10.9375,13.7798125 10.9375,14.125 C10.9375,14.469625 10.657125,14.75 10.3125,14.75 L1.875,14.75 C1.530375,14.75 1.25,14.469625 1.25,14.125 L1.25,13.15625 C1.25,12.1285 2.9445,10.7040938 3.9569375,9.853 C4.1414375,9.69790625 4.31578125,9.551375 4.47275,9.4148125 C4.88728125,9.05415625 5.125,8.53846875 5.125,8 C5.125,7.4615 4.88728125,6.9458125 4.47271875,6.58515625 C4.31575,6.448625 4.1414375,6.30209375 3.9569375,6.14696875 C2.9445,5.29590625 1.25,3.8715 1.25,2.84375 L1.25,1.875 C1.25,1.530375 1.530375,1.25 1.875,1.25 L10.3125,1.25 C10.657125,1.25 10.9375,1.530375 10.9375,1.875 L10.9375,2.84375 C10.9375,3.8715 9.243,5.29590625 8.2305625,6.14696875 C8.0460625,6.3020625 7.87171875,6.44859375 7.71475,6.58515625 C7.30021875,6.9458125 7.0625,7.4615 7.0625,8 C7.0625,8.5385 7.30021875,9.0541875 7.71478125,9.4148125 C7.878375,9.557125 8.06065625,9.70971875 8.2536875,9.87128125 C8.8616875,10.3801875 9.55084375,10.9570625 10.0947813,11.5707812 C10.3237188,11.8290625 10.7186875,11.8529375 10.9770625,11.6239687 C11.235375,11.3950312 11.2591875,11 11.03025,10.7416875 C10.4245313,10.0582813 9.66571875,9.423125 9.05596875,8.91275 C8.8676875,8.755125 8.6898125,8.60625 8.53525,8.47175 C8.3936875,8.34859375 8.3125,8.17665625 8.3125,8 C8.3125,7.82334375 8.3936875,7.651375 8.53521875,7.52821875 Z" id="Path"></path>
                <path d="M6.741125,10.458375 C6.3685625,10.1388437 5.81896875,10.1388437 5.4464375,10.458375 C5.42340625,10.478125 3.63409375,11.988 3.15871875,12.4962188 C3.15346875,12.5018438 3.14821875,12.5074375 3.1430625,12.5130313 C2.826875,12.8531563 3.06925,13.40625 3.5338125,13.40625 L8.6536875,13.40625 C9.11825,13.40625 9.360625,12.8531563 9.0445,12.5130313 C9.0393125,12.5074688 9.03409375,12.5018438 9.02884375,12.4962188 C8.55346875,11.988 6.76415625,10.4781562 6.741125,10.458375 Z" id="Path"></path>
            </g>
        </g>
    </g>
</svg>